<?xml version="1.0" encoding="UTF-8" standalone="no"?>
<!DOCTYPE svg PUBLIC "-//W3C//DTD SVG 1.1//EN" "http://www.w3.org/Graphics/SVG/1.1/DTD/svg11.dtd">
<svg width="100%" height="100%" viewBox="0 0 512 512" version="1.1" xmlns="http://www.w3.org/2000/svg" xmlns:xlink="http://www.w3.org/1999/xlink" xml:space="preserve" xmlns:serif="http://www.serif.com/" style="fill-rule:evenodd;clip-rule:evenodd;">
    <g id="Artboard1" transform="matrix(0.925023,0,0,0.967864,-621.615,-243.902)">
        <rect x="672" y="252" width="553.5" height="529" style="fill:none;"/>
        <g transform="matrix(-1.42652,0,0,-1.36337,1321.05,864.488)">
            <g transform="matrix(1,0,0,1,85.5,74.5)">
                <g transform="matrix(1,0,0,1,2.75,90.75)">
                    <path d="M0,-2.5C1.381,-2.5 2.5,-1.381 2.5,0C2.5,1.381 1.381,2.5 0,2.5C-1.381,2.5 -2.5,1.381 -2.5,0C-2.5,-1.381 -1.381,-2.5 0,-2.5Z" style="fill:white;fill-rule:nonzero;"/>
                </g>
                <g transform="matrix(1,0,0,1,13.75,162.75)">
                    <g opacity="0.02">
                        <path d="M0,-2.5C1.381,-2.5 2.5,-1.381 2.5,0C2.5,1.381 1.381,2.5 0,2.5C-1.381,2.5 -2.5,1.381 -2.5,0C-2.5,-1.381 -1.381,-2.5 0,-2.5Z" style="fill:white;fill-rule:nonzero;"/>
                    </g>
                </g>
                <g transform="matrix(1,0,0,1,2.75,223.75)">
                    <g opacity="0.07">
                        <path d="M0,-2.5C1.381,-2.5 2.5,-1.381 2.5,0C2.5,1.381 1.381,2.5 0,2.5C-1.381,2.5 -2.5,1.381 -2.5,0C-2.5,-1.381 -1.381,-2.5 0,-2.5Z" style="fill:white;fill-rule:nonzero;"/>
                    </g>
                </g>
                <g transform="matrix(1,0,0,1,41.75,254.75)">
                    <g opacity="0.3">
                        <path d="M0,-2.5C1.381,-2.5 2.5,-1.381 2.5,0C2.5,1.381 1.381,2.5 0,2.5C-1.381,2.5 -2.5,1.381 -2.5,0C-2.5,-1.381 -1.381,-2.5 0,-2.5Z" style="fill:white;fill-rule:nonzero;"/>
                    </g>
                </g>
                <g transform="matrix(1,0,0,1,102.75,283.75)">
                    <g opacity="0">
                        <path d="M0,-2.5C1.381,-2.5 2.5,-1.381 2.5,0C2.5,1.381 1.381,2.5 0,2.5C-1.381,2.5 -2.5,1.381 -2.5,0C-2.5,-1.381 -1.381,-2.5 0,-2.5Z" style="fill:white;fill-rule:nonzero;"/>
                    </g>
                </g>
                <g transform="matrix(1,0,0,1,155.75,326.75)">
                    <path d="M0,-2.5C1.381,-2.5 2.5,-1.381 2.5,0C2.5,1.381 1.381,2.5 0,2.5C-1.381,2.5 -2.5,1.381 -2.5,0C-2.5,-1.381 -1.381,-2.5 0,-2.5Z" style="fill:white;fill-rule:nonzero;"/>
                </g>
                <g transform="matrix(1,0,0,1,245.75,320.75)">
                    <path d="M0,-2.5C1.381,-2.5 2.5,-1.381 2.5,0C2.5,1.381 1.381,2.5 0,2.5C-1.381,2.5 -2.5,1.381 -2.5,0C-2.5,-1.381 -1.381,-2.5 0,-2.5Z" style="fill:white;fill-rule:nonzero;"/>
                </g>
                <g transform="matrix(1,0,0,1,204.75,359.75)">
                    <path d="M0,-2.5C1.381,-2.5 2.5,-1.381 2.5,0C2.5,1.381 1.381,2.5 0,2.5C-1.381,2.5 -2.5,1.381 -2.5,0C-2.5,-1.381 -1.381,-2.5 0,-2.5Z" style="fill:white;fill-rule:nonzero;"/>
                </g>
                <g transform="matrix(1,0,0,1,306.75,223.75)">
                    <g opacity="0.1">
                        <path d="M0,-2.5C1.381,-2.5 2.5,-1.381 2.5,0C2.5,1.381 1.381,2.5 0,2.5C-1.381,2.5 -2.5,1.381 -2.5,0C-2.5,-1.381 -1.381,-2.5 0,-2.5Z" style="fill:white;fill-rule:nonzero;"/>
                    </g>
                </g>
                <g transform="matrix(1,0,0,1,337.75,162.75)">
                    <g opacity="0.04">
                        <path d="M0,-2.5C1.381,-2.5 2.5,-1.381 2.5,0C2.5,1.381 1.381,2.5 0,2.5C-1.381,2.5 -2.5,1.381 -2.5,0C-2.5,-1.381 -1.381,-2.5 0,-2.5Z" style="fill:white;fill-rule:nonzero;"/>
                    </g>
                </g>
                <g transform="matrix(1,0,0,1,295.75,99.75)">
                    <g opacity="0.47">
                        <path d="M0,-2.5C1.381,-2.5 2.5,-1.381 2.5,0C2.5,1.381 1.381,2.5 0,2.5C-1.381,2.5 -2.5,1.381 -2.5,0C-2.5,-1.381 -1.381,-2.5 0,-2.5Z" style="fill:white;fill-rule:nonzero;"/>
                    </g>
                </g>
                <g transform="matrix(1,0,0,1,282.75,42.75)">
                    <g opacity="0">
                        <path d="M0,-2.5C1.381,-2.5 2.5,-1.381 2.5,0C2.5,1.381 1.381,2.5 0,2.5C-1.381,2.5 -2.5,1.381 -2.5,0C-2.5,-1.381 -1.381,-2.5 0,-2.5Z" style="fill:white;fill-rule:nonzero;"/>
                    </g>
                </g>
                <g transform="matrix(1,0,0,1,165.75,33.75)">
                    <g opacity="0.04">
                        <path d="M0,-2.5C1.381,-2.5 2.5,-1.381 2.5,0C2.5,1.381 1.381,2.5 0,2.5C-1.381,2.5 -2.5,1.381 -2.5,0C-2.5,-1.381 -1.381,-2.5 0,-2.5Z" style="fill:white;fill-rule:nonzero;"/>
                    </g>
                </g>
                <g transform="matrix(1,0,0,1,72.75,68.75)">
                    <path d="M0,-2.5C1.381,-2.5 2.5,-1.381 2.5,0C2.5,1.381 1.381,2.5 0,2.5C-1.381,2.5 -2.5,1.381 -2.5,0C-2.5,-1.381 -1.381,-2.5 0,-2.5Z" style="fill:white;fill-rule:nonzero;"/>
                </g>
                <g transform="matrix(1,0,0,1,101.75,2.75)">
                    <g opacity="0">
                        <path d="M0,-2.5C1.381,-2.5 2.5,-1.381 2.5,0C2.5,1.381 1.381,2.5 0,2.5C-1.381,2.5 -2.5,1.381 -2.5,0C-2.5,-1.381 -1.381,-2.5 0,-2.5Z" style="fill:white;fill-rule:nonzero;"/>
                    </g>
                </g>
                <g transform="matrix(1,0,0,1,55.75,143.75)">
                    <g opacity="0.1">
                        <path d="M0,-2.5C1.381,-2.5 2.5,-1.381 2.5,0C2.5,1.381 1.381,2.5 0,2.5C-1.381,2.5 -2.5,1.381 -2.5,0C-2.5,-1.381 -1.381,-2.5 0,-2.5Z" style="fill:white;fill-rule:nonzero;"/>
                    </g>
                </g>
                <g transform="matrix(1,0,0,1,331.25,270.25)">
                    <g opacity="0.1">
                        <path d="M0,-2C1.104,-2 2,-1.104 2,0C2,1.104 1.104,2 0,2C-1.104,2 -2,1.104 -2,0C-2,-1.104 -1.104,-2 0,-2Z" style="fill:white;fill-rule:nonzero;"/>
                    </g>
                </g>
            </g>
            <g transform="matrix(1,0,0,1,256,256)">
                <g opacity="0.75">
                    <g transform="matrix(0.556831,0.830626,-0.830626,0.556831,2.141,0.523)">
                        <path d="M-162.462,21.238C-153.245,130.86 -20.929,208.407 55.805,164.33C125.461,124.275 153.849,98.331 170.007,35.01C186.138,-28.188 122.693,-144.047 48.748,-158.364C-45.794,-175.913 -170.494,-80.742 -162.462,21.238Z" style="fill-opacity:0;fill-rule:nonzero;stroke:rgb(235,230,217);stroke-width:1px;"/>
                    </g>
                </g>
            </g>
            <g transform="matrix(0.906308,-0.422618,0.422618,0.906308,256,256)">
                <g opacity="0.75">
                    <g transform="matrix(0.556831,-0.830626,0.830626,0.556831,2.141,0.523)">
                        <path d="M-162.462,21.238C-153.245,130.86 -20.929,208.407 55.805,164.33C125.461,124.275 153.849,98.331 170.007,35.01C186.138,-28.188 122.693,-144.047 48.748,-158.364C-45.794,-175.913 -170.494,-80.742 -162.462,21.238Z" style="fill-opacity:0;fill-rule:nonzero;stroke:white;stroke-opacity:0.25;stroke-width:1px;stroke-miterlimit:3;"/>
                    </g>
                </g>
            </g>
            <g transform="matrix(1,0,0,1,256,256)">
                <g opacity="0.75">
                    <g transform="matrix(0.556831,-0.830626,0.830626,0.556831,2.141,0.523)">
                        <path d="M-168.567,-10.659C-163.227,79.284 -7.273,222.44 70.364,180.267C140.974,141.917 161.594,74.826 155.553,1.21C149.485,-72.286 71.401,-160.889 -11.768,-169.176C-94.78,-177.415 -172.819,-99.207 -168.567,-10.659Z" style="fill-opacity:0;fill-rule:nonzero;stroke:rgb(235,230,217);stroke-width:1px;"/>
                    </g>
                </g>
            </g>
            <g transform="matrix(1,0,0,1,256,256)">
                <g opacity="0.5">
                    <g transform="matrix(-0.379879,0.925036,-0.925036,-0.379879,2.141,0.523)">
                        <path d="M-177.79,27.771C-164.688,159.176 -5.736,210.142 71.901,167.97C142.511,129.62 183.114,74.826 175.536,-21.848C167.931,-118.401 83.698,-180.872 -22.528,-178.399C-128.598,-175.878 -189.728,-96.133 -177.79,27.771Z" style="fill-opacity:0;fill-rule:nonzero;stroke:rgb(235,230,217);stroke-width:1px;"/>
                    </g>
                </g>
            </g>
            <g transform="matrix(0.906308,-0.422618,0.422618,0.906308,256,256)">
                <g opacity="0.75">
                    <g transform="matrix(0.556831,-0.830626,0.830626,0.556831,2.141,0.523)">
                        <path d="M-162.462,21.238C-153.245,130.86 -20.929,208.407 55.805,164.33C125.461,124.275 153.849,98.331 170.007,35.01C186.138,-28.188 122.693,-144.047 48.748,-158.364C-45.794,-175.913 -170.494,-80.742 -162.462,21.238Z" style="fill-opacity:0;fill-rule:nonzero;stroke:rgb(235,230,217);stroke-opacity:0.25;stroke-width:1px;stroke-miterlimit:3;"/>
                    </g>
                </g>
            </g>
            <g transform="matrix(0.153622,0.98813,-0.98813,0.153622,257.719,257.379)">
                <g>
                    <path d="M-168.567,-10.659C-163.227,79.284 -7.273,222.44 70.364,180.267C140.974,141.917 161.594,74.826 155.553,1.21C149.485,-72.286 71.401,-160.889 -11.768,-169.176C-94.78,-177.415 -172.819,-99.207 -168.567,-10.659Z" style="fill-opacity:0;fill-rule:nonzero;stroke:rgb(235,230,217);stroke-opacity:0.25;stroke-width:1px;stroke-linecap:round;stroke-linejoin:round;"/>
                </g>
            </g>
            <g transform="matrix(0.399198,-0.595484,0.610635,0.409354,265.821,271.973)">
                <g opacity="0.25">
                    <g transform="matrix(0.98364,0,0,1,6.148,-23.852)">
                        <path d="M0,-186.148C102.735,-186.148 186.148,-102.735 186.148,0C186.148,102.735 102.735,186.148 0,186.148C-102.735,186.148 -186.148,102.735 -186.148,0C-186.148,-102.735 -102.735,-186.148 0,-186.148Z" style="fill-opacity:0;fill-rule:nonzero;stroke:rgb(235,230,217);stroke-width:1px;"/>
                    </g>
                </g>
            </g>
        </g>
    </g>
</svg>
