<?xml version="1.0" encoding="UTF-8" standalone="no"?>
<!DOCTYPE svg PUBLIC "-//W3C//DTD SVG 1.1//EN" "http://www.w3.org/Graphics/SVG/1.1/DTD/svg11.dtd">
<svg width="100%" height="100%" viewBox="0 0 80 28" version="1.1" xmlns="http://www.w3.org/2000/svg" xmlns:xlink="http://www.w3.org/1999/xlink" xml:space="preserve" xmlns:serif="http://www.serif.com/" style="fill-rule:evenodd;clip-rule:evenodd;stroke-linejoin:round;stroke-miterlimit:2;">
    <g id="Artboard1" transform="matrix(1,0,0,1,-11.4226,-10.0787)">
        <rect x="11.423" y="10.079" width="79.958" height="27.549" style="fill:none;"/>
        <g id="Layer-1" serif:id="Layer 1" transform="matrix(1,0,0,1,0.46107,-0.0950349)">
            <g transform="matrix(1.02614,0,0,1,20.2368,28.988)">
                <g>
                    <g>
                        <path d="M2.124,0L2.124,-5.536L0.685,-5.536L0.685,0L2.124,0ZM10.455,0L10.455,-9.756L9.016,-9.756L9.016,-2.22L2.124,-9.756L0.685,-9.756L0.685,-8.317L1.507,-8.317L9.112,0L10.455,0Z" style="fill:white;fill-rule:nonzero;"/>
                        <path d="M21.594,0L21.594,-1.439L13.264,-1.439L13.264,-4.097L20.156,-4.097L20.156,-5.536L13.264,-5.536L13.264,-8.317L21.608,-8.317L21.608,-9.756L11.825,-9.756L11.825,0L21.594,0Z" style="fill:white;fill-rule:nonzero;"/>
                        <rect x="22.978" y="-9.756" width="1.439" height="9.756" style="fill:white;fill-rule:nonzero;"/>
                        <path d="M35.543,0L35.543,-1.425L27.226,-1.425L27.24,-9.742L25.787,-9.742L25.787,0L35.543,0Z" style="fill:white;fill-rule:nonzero;"/>
                    </g>
                </g>
            </g>
            <g transform="matrix(1,0,0,1,49.2578,22.413)">
                <g>
                    <path d="M3.755,0L3.755,-1.988L2.003,-1.988L2.003,-1.471L3.238,-1.471L3.238,0L3.755,0ZM2.721,0L2.721,-0.512L1.127,-0.512C0.925,-0.512 0.763,-0.679 0.763,-0.881L0.763,-2.618C0.763,-2.825 0.925,-2.987 1.132,-2.987L2.874,-2.987C3.076,-2.987 3.238,-2.83 3.238,-2.623L3.75,-2.623L3.75,-2.633C3.75,-3.115 3.356,-3.504 2.874,-3.504L1.132,-3.504C0.645,-3.504 0.246,-3.11 0.246,-2.623L0.246,-0.881C0.246,-0.394 0.64,0 1.127,0L2.721,0Z" style="fill:white;fill-rule:nonzero;"/>
                    <path d="M6.875,0C7.362,0 7.755,-0.394 7.755,-0.881L7.755,-2.623C7.755,-3.11 7.362,-3.504 6.875,-3.504L5.098,-3.504C4.621,-3.489 4.247,-3.09 4.247,-2.623L4.247,-0.881C4.247,-0.413 4.621,-0.02 5.098,0L6.875,0ZM6.875,-0.512L5.108,-0.512C4.916,-0.527 4.764,-0.689 4.764,-0.881L4.764,-2.623C4.764,-2.815 4.921,-2.977 5.108,-2.987L6.875,-2.987C7.076,-2.987 7.239,-2.825 7.239,-2.628L7.239,-0.881C7.239,-0.679 7.076,-0.512 6.875,-0.512Z" style="fill:white;fill-rule:nonzero;"/>
                    <path d="M11.746,0L11.746,-3.504L11.23,-3.504L11.23,-0.797L8.754,-3.504L8.238,-3.504L8.238,0L8.754,0L8.754,-2.741L11.264,0L11.746,0Z" style="fill:white;fill-rule:nonzero;"/>
                    <path d="M15.737,0L15.737,-0.517L13.006,-0.517L15.737,-2.987L15.737,-3.504L12.229,-3.504L12.229,-2.987L14.965,-2.987L12.229,-0.517L12.229,0L15.737,0Z" style="fill:white;fill-rule:nonzero;"/>
                    <path d="M19.738,0L18.242,-3.504L17.725,-3.504L16.229,0L16.79,0L17.233,-1.033L18.739,-1.033L19.177,0L19.738,0ZM18.547,-1.476L17.42,-1.476L17.986,-2.795L18.547,-1.476Z" style="fill:white;fill-rule:nonzero;"/>
                    <path d="M23.685,0L23.685,-0.512L20.698,-0.512L20.703,-3.499L20.181,-3.499L20.181,0L23.685,0Z" style="fill:white;fill-rule:nonzero;"/>
                    <path d="M27.681,0L27.681,-0.517L24.689,-0.517L24.689,-1.471L27.164,-1.471L27.164,-1.988L24.689,-1.988L24.689,-2.987L27.686,-2.987L27.686,-3.504L24.172,-3.504L24.172,0L27.681,0Z" style="fill:white;fill-rule:nonzero;"/>
                    <path d="M31.686,0L31.686,-0.517L28.955,-0.517L31.686,-2.987L31.686,-3.504L28.178,-3.504L28.178,-2.987L30.914,-2.987L28.178,-0.517L28.178,0L31.686,0Z" style="fill:white;fill-rule:nonzero;"/>
                </g>
            </g>
            <g transform="matrix(1,0,0,1,-6.71916,-172.01)">
                <g>
                    <g transform="matrix(1,0,0,1,55.893,198.91)">
                        <path d="M3.755,0L2.259,-3.504L1.742,-3.504L0.246,0L0.807,0L1.25,-1.033L2.756,-1.033L3.194,0L3.755,0ZM2.564,-1.476L1.437,-1.476L2.003,-2.795L2.564,-1.476Z" style="fill:white;"/>
                        <path d="M7.706,0L6.447,-1.471L6.825,-1.471C7.313,-1.471 7.706,-1.865 7.706,-2.352L7.706,-2.623C7.706,-3.11 7.313,-3.504 6.825,-3.504L4.198,-3.504L4.198,0L4.714,0L4.714,-1.471L5.767,-1.471L7.027,0L7.706,0ZM6.825,-1.988L4.714,-1.988L4.714,-2.987L6.825,-2.987C7.027,-2.987 7.19,-2.825 7.19,-2.623L7.19,-2.352C7.19,-2.15 7.027,-1.988 6.825,-1.988Z" style="fill:white;"/>
                        <path d="M11.707,0L10.447,-1.471L10.826,-1.471C11.313,-1.471 11.707,-1.865 11.707,-2.352L11.707,-2.623C11.707,-3.11 11.313,-3.504 10.826,-3.504L8.198,-3.504L8.198,0L8.715,0L8.715,-1.471L9.768,-1.471L11.028,0L11.707,0ZM10.826,-1.988L8.715,-1.988L8.715,-2.987L10.826,-2.987C11.028,-2.987 11.19,-2.825 11.19,-2.623L11.19,-2.352C11.19,-2.15 11.028,-1.988 10.826,-1.988Z" style="fill:white;"/>
                        <rect x="12.15" y="-3.504" width="0.517" height="3.504" style="fill:white;"/>
                    </g>
                    <g transform="matrix(1,0,0,1,68.756,198.91)">
                        <path d="M3.755,0L2.259,-3.504L1.742,-3.504L0.246,0L0.807,0L1.25,-1.033L2.756,-1.033L3.194,0L3.755,0ZM2.564,-1.476L1.437,-1.476L2.003,-2.795L2.564,-1.476Z" style="fill:white;"/>
                        <path d="M6.628,0C7.11,0 7.509,-0.399 7.509,-0.886L7.509,-1.988L5.757,-1.988L5.757,-1.471L6.992,-1.471L6.992,-0.886C6.992,-0.679 6.83,-0.512 6.628,-0.512L4.881,-0.512C4.679,-0.512 4.517,-0.679 4.517,-0.881L4.517,-2.618C4.517,-2.825 4.679,-2.987 4.886,-2.987L6.628,-2.987C6.83,-2.987 6.992,-2.825 6.992,-2.623L7.504,-2.623L7.504,-2.633C7.504,-3.115 7.11,-3.504 6.628,-3.504L4.886,-3.504C4.399,-3.504 4,-3.11 4,-2.623L4,-0.881C4,-0.394 4.394,0 4.881,0L6.628,0Z" style="fill:white;"/>
                        <path d="M11.264,0L9.768,-3.504L9.251,-3.504L7.755,0L8.316,0L8.759,-1.033L10.265,-1.033L10.703,0L11.264,0ZM10.073,-1.476L8.946,-1.476L9.512,-2.795L10.073,-1.476Z" style="fill:white;"/>
                    </g>
                </g>
            </g>
        </g>
    </g>
</svg>
